<?xml version="1.0" encoding="UTF-8"?>
<svg id="Calque_2" data-name="Calque 2" xmlns="http://www.w3.org/2000/svg" xmlns:xlink="http://www.w3.org/1999/xlink" viewBox="0 0 515.33 317.68">
  <defs>
    <style>
      .cls-1 {
        fill: url(#Dégradé_sans_nom_235);
      }

      .cls-1, .cls-2, .cls-3, .cls-4, .cls-5, .cls-6, .cls-7, .cls-8, .cls-9, .cls-10, .cls-11, .cls-12, .cls-13, .cls-14, .cls-15, .cls-16, .cls-17 {
        fill-rule: evenodd;
      }

      .cls-2 {
        fill: url(#Dégradé_sans_nom_313);
      }

      .cls-3 {
        fill: url(#Dégradé_sans_nom_206);
      }

      .cls-4 {
        fill: url(#Dégradé_sans_nom_281);
      }

      .cls-5 {
        fill: url(#Dégradé_sans_nom_288);
      }

      .cls-6 {
        fill: url(#Dégradé_sans_nom_300);
      }

      .cls-7 {
        fill: url(#Dégradé_sans_nom_305);
      }

      .cls-8 {
        fill: url(#Dégradé_sans_nom_188);
      }

      .cls-9 {
        fill: url(#Dégradé_sans_nom_305-2);
      }

      .cls-10 {
        fill: url(#Dégradé_sans_nom_206-3);
      }

      .cls-11 {
        fill: url(#Dégradé_sans_nom_206-2);
      }

      .cls-12 {
        fill: url(#Dégradé_sans_nom_188-2);
      }

      .cls-13 {
        fill: #283554;
      }

      .cls-14 {
        fill: #607494;
      }

      .cls-15 {
        fill: #fbf7f0;
      }

      .cls-16 {
        fill: #2f3a47;
      }

      .cls-17 {
        fill: #c9b88a;
      }

      .cls-18 {
        fill: #111729;
      }
    </style>
    <linearGradient id="Dégradé_sans_nom_206" data-name="Dégradé sans nom 206" x1="218.82" y1="18.34" x2="229.52" y2="43.98" gradientUnits="userSpaceOnUse">
      <stop offset="0" stop-color="#fbf7f0"/>
      <stop offset="1" stop-color="#d7cfc2"/>
    </linearGradient>
    <linearGradient id="Dégradé_sans_nom_188" data-name="Dégradé sans nom 188" x1="224.4" y1="35.75" x2="214.84" y2="54.98" gradientUnits="userSpaceOnUse">
      <stop offset=".04" stop-color="#c9b88a"/>
      <stop offset="1" stop-color="#a08f66"/>
    </linearGradient>
    <linearGradient id="Dégradé_sans_nom_206-2" data-name="Dégradé sans nom 206" x1="194.41" y1="73.46" x2="194.41" y2="154.43" xlink:href="#Dégradé_sans_nom_206"/>
    <linearGradient id="Dégradé_sans_nom_188-2" data-name="Dégradé sans nom 188" x1="165.96" y1="49.02" x2="166.51" y2="91.98" xlink:href="#Dégradé_sans_nom_188"/>
    <linearGradient id="Dégradé_sans_nom_313" data-name="Dégradé sans nom 313" x1="260.31" y1="89.72" x2="251.14" y2="59.51" gradientUnits="userSpaceOnUse">
      <stop offset=".2" stop-color="#273452"/>
      <stop offset="1" stop-color="#607494"/>
    </linearGradient>
    <linearGradient id="Dégradé_sans_nom_300" data-name="Dégradé sans nom 300" x1="225.4" y1="82.73" x2="224.85" y2="131.74" gradientUnits="userSpaceOnUse">
      <stop offset=".03" stop-color="#2f3d5b"/>
      <stop offset="1" stop-color="#111729"/>
    </linearGradient>
    <linearGradient id="Dégradé_sans_nom_206-3" data-name="Dégradé sans nom 206" x1="273.54" y1="100.91" x2="283.46" y2="126.41" xlink:href="#Dégradé_sans_nom_206"/>
    <linearGradient id="Dégradé_sans_nom_281" data-name="Dégradé sans nom 281" x1="261.13" y1="115.13" x2="249.85" y2="140.33" gradientUnits="userSpaceOnUse">
      <stop offset=".04" stop-color="#d7cfc2"/>
      <stop offset="1" stop-color="#ab9a6f"/>
    </linearGradient>
    <linearGradient id="Dégradé_sans_nom_305" data-name="Dégradé sans nom 305" x1="257.55" y1="166.45" x2="248.19" y2="197.63" gradientUnits="userSpaceOnUse">
      <stop offset="0" stop-color="#607494"/>
      <stop offset="1" stop-color="#273452"/>
    </linearGradient>
    <linearGradient id="Dégradé_sans_nom_288" data-name="Dégradé sans nom 288" x1="222.16" y1="186.46" x2="231.72" y2="165.83" gradientUnits="userSpaceOnUse">
      <stop offset="0" stop-color="#111729"/>
      <stop offset="1" stop-color="#2f3a47"/>
    </linearGradient>
    <linearGradient id="Dégradé_sans_nom_305-2" data-name="Dégradé sans nom 305" x1="315.43" y1="50.73" x2="315.43" y2="100.35" xlink:href="#Dégradé_sans_nom_305"/>
    <linearGradient id="Dégradé_sans_nom_235" data-name="Dégradé sans nom 235" x1="287" y1="70.99" x2="287" y2="39.48" gradientUnits="userSpaceOnUse">
      <stop offset="0" stop-color="#111729"/>
      <stop offset="1" stop-color="#283554"/>
    </linearGradient>
  </defs>
  <g id="Calque_2-2" data-name="Calque 2">
    <g>
      <g>
        <polygon class="cls-3" points="209.84 33.07 209.84 52.37 240.71 34.55 240.71 15.25 209.84 33.07 209.84 33.07"/>
        <polygon class="cls-8" points="209.84 33.07 209.84 176.81 178.98 147.07 178.98 15.25 209.84 33.07 209.84 33.07"/>
        <path class="cls-17" d="M240.71,15.25l-22.57-13.03c-5.13-2.96-11.46-2.96-16.59,0l-22.57,13.03,30.86,17.82,30.86-17.82h0Z"/>
        <polygon class="cls-11" points="178.98 70.19 178.98 147.07 209.84 176.77 209.84 52.37 178.98 70.19 178.98 70.19"/>
        <path class="cls-12" d="M178.98,70.19v76.88l-16.31-16.46c-5.51-4.93-8.66-11.97-8.66-19.36v-58.88l24.97,17.82h0Z"/>
        <path class="cls-17" d="M209.84,52.37l-30.86-17.82-22.02,12.72c-3.93,2.27-3.93,7.94,0,10.2l22.02,12.72,30.86-17.82h0Z"/>
        <polygon class="cls-2" points="240.71 70.19 240.71 99.56 271.57 81.74 271.57 52.37 240.71 70.19 240.71 70.19"/>
        <polygon class="cls-6" points="240.71 70.19 240.71 135.21 209.84 153.04 209.84 52.37 240.71 70.19 240.71 70.19"/>
        <polygon class="cls-14" points="271.57 52.37 240.71 34.56 209.84 52.37 240.71 70.19 271.57 52.37 271.57 52.37"/>
        <polygon class="cls-10" points="271.57 117.37 271.57 171.47 302.43 136.48 302.43 99.56 271.57 117.37 271.57 117.37"/>
        <polygon class="cls-4" points="271.57 117.37 271.57 153.01 240.71 135.19 240.71 99.56 271.57 117.37 271.57 117.37"/>
        <polygon class="cls-15" points="302.43 99.56 271.57 81.74 240.71 99.56 271.57 117.37 302.43 99.56 302.43 99.56"/>
        <polygon class="cls-7" points="240.71 170.84 240.71 206.47 271.57 171.47 271.57 153.02 240.71 170.84 240.71 170.84"/>
        <polygon class="cls-5" points="240.71 170.84 240.71 206.47 209.84 176.77 209.84 153.02 240.71 170.84 240.71 170.84"/>
        <polygon class="cls-16" points="271.57 153.02 240.71 135.2 209.84 153.02 240.71 170.84 271.57 153.02 271.57 153.02"/>
        <path class="cls-9" d="M302.43,49.2v87.27l19.25-22.37c4.87-5.52,6.68-9.27,6.76-22.29V31.52l-26.01,17.68h0Z"/>
        <polygon class="cls-1" points="302.43 49.2 302.43 99.57 271.57 81.75 271.57 31.38 302.43 49.2 302.43 49.2"/>
        <path class="cls-13" d="M310.72,18.36c-5.13-2.96-11.46-2.96-16.59,0l-22.57,13.03,30.86,17.82,23.59-13.62c3.23-1.87,3.23-6.53,0-8.4l-15.3-8.83Z"/>
      </g>
      <g>
        <path class="cls-18" d="M23.83,268.85l-8.5,8.73c-1.59,1.63-2.47,3.81-2.47,6.09v14.15H0v-69.2h12.85v35.49l34.2-35.49h14.43l-29.06,30.94,30.84,38.26h-15.03l-24.42-28.96Z"/>
        <path class="cls-18" d="M77.9,295.04c-4.29-2.31-7.63-5.52-10.03-9.64-2.41-4.12-3.61-8.78-3.61-13.99s1.2-9.85,3.61-13.94c2.4-4.08,5.75-7.28,10.03-9.59,4.28-2.31,9.09-3.46,14.43-3.46s10.25,1.15,14.53,3.46c4.28,2.31,7.63,5.5,10.03,9.59,2.4,4.09,3.61,8.73,3.61,13.94s-1.2,9.87-3.61,13.99c-2.41,4.12-5.75,7.33-10.03,9.64-4.29,2.31-9.13,3.46-14.53,3.46s-10.15-1.15-14.43-3.46ZM103.6,283.38c2.96-3.03,4.45-7.02,4.45-11.96s-1.48-8.93-4.45-11.96c-2.97-3.03-6.72-4.55-11.27-4.55s-8.29,1.52-11.22,4.55c-2.93,3.03-4.4,7.02-4.4,11.96s1.47,8.93,4.4,11.96c2.93,3.03,6.67,4.55,11.22,4.55s8.3-1.52,11.27-4.55Z"/>
        <path class="cls-18" d="M162.91,244.43v11.76c-1.05-.2-2.01-.3-2.87-.3-4.81,0-8.57,1.4-11.27,4.2-2.7,2.8-4.05,6.84-4.05,12.11v25.6h-12.36v-52.79h11.76v3.88c0,1.19,1.44,1.84,2.29,1.01,3.71-3.65,9.21-5.48,16.5-5.48Z"/>
        <path class="cls-18" d="M211.1,250.01c4.12,3.73,6.18,9.34,6.18,16.86v30.94h-11.67v-2.37c0-1.31-1.53-2.04-2.53-1.2-1.13.97-2.45,1.77-3.95,2.43-2.8,1.22-6.18,1.83-10.13,1.83s-7.41-.68-10.38-2.03c-2.96-1.35-5.26-3.23-6.87-5.64-1.62-2.4-2.42-5.12-2.42-8.15,0-4.75,1.76-8.55,5.29-11.42,3.52-2.87,9.08-4.3,16.66-4.3h13.64v-.79c0-3.69-1.1-6.52-3.31-8.5-2.21-1.98-5.49-2.97-9.83-2.97-2.97,0-5.88.46-8.75,1.38-2.87.92-5.29,2.21-7.27,3.86l-4.84-9c2.77-2.11,6.09-3.72,9.98-4.84,3.89-1.12,8.01-1.68,12.36-1.68,7.78,0,13.72,1.86,17.84,5.59ZM199.84,287.38s.05-.03.07-.04c3.23-1.93,5.02-5.6,5.02-9.37v-2.8h-12.75c-7.12,0-10.68,2.34-10.68,7.02,0,2.24.89,4.02,2.67,5.34,1.78,1.32,4.25,1.98,7.41,1.98s5.85-.71,8.25-2.12Z"/>
        <path class="cls-18" d="M234.29,228.61h12.85v55.36c0,1.64,1.33,2.96,2.96,2.96h33.22v10.87h-49.03v-69.2Z"/>
        <path class="cls-18" d="M337.99,245.02l-24.71,57.04c-2.31,5.73-5.11,9.77-8.4,12.11-3.3,2.34-7.28,3.51-11.96,3.51-2.64,0-5.24-.43-7.81-1.28-2.57-.86-4.68-2.04-6.33-3.56l4.94-9.09c1.19,1.12,2.59,2.01,4.2,2.67,1.61.66,3.24.99,4.89.99,2.18,0,3.97-.56,5.39-1.68,1.42-1.12,2.72-3,3.91-5.63h0c.57-1.33.56-2.83-.01-4.15l-22.13-50.91h12.85l16.61,39.05,16.71-39.05h11.86Z"/>
        <path class="cls-18" d="M378.91,294.95c-1.45,1.19-3.21,2.08-5.29,2.67-2.08.59-4.27.89-6.57.89-5.8,0-10.28-1.52-13.44-4.55-3.16-3.03-4.75-7.45-4.75-13.25v-25.41h-8.7v-9.89h8.7v-12.06h12.36v12.06h14.14v9.89h-9.93c-2.32,0-4.2,1.88-4.2,4.2v20.91c0,2.57.62,4.53,1.88,5.88,1.25,1.35,3.06,2.03,5.44,2.03,2.77,0,5.07-.72,6.92-2.17l3.46,8.8Z"/>
        <path class="cls-18" d="M389.68,234.2c-1.52-1.42-2.27-3.18-2.27-5.29s.76-3.87,2.27-5.29c1.52-1.42,3.39-2.12,5.63-2.12s4.12.68,5.63,2.03c1.52,1.35,2.27,3.05,2.27,5.09,0,2.18-.74,4.01-2.22,5.49-1.48,1.48-3.38,2.22-5.68,2.22s-4.12-.71-5.63-2.12ZM389.09,245.02h12.36v52.79h-12.36v-52.79Z"/>
        <path class="cls-18" d="M427.15,295.04c-4.35-2.31-7.74-5.52-10.18-9.64-2.44-4.12-3.66-8.78-3.66-13.99s1.22-9.85,3.66-13.94c2.44-4.08,5.81-7.28,10.13-9.59,4.32-2.31,9.24-3.46,14.78-3.46,5.21,0,9.77,1.06,13.69,3.16,3.92,2.11,6.87,5.14,8.85,9.09l-9.49,5.54c-1.52-2.44-3.41-4.27-5.68-5.49-2.27-1.22-4.76-1.83-7.46-1.83-4.61,0-8.44,1.5-11.47,4.5-3.03,3-4.55,7-4.55,12.01s1.5,9.01,4.5,12.01c3,3,6.84,4.5,11.52,4.5,2.7,0,5.19-.61,7.46-1.83,2.27-1.22,4.17-3.05,5.68-5.49l9.49,5.54c-2.04,3.95-5.03,7-8.95,9.14-3.92,2.14-8.45,3.21-13.59,3.21-5.47,0-10.38-1.15-14.73-3.46Z"/>
        <path class="cls-18" d="M478.85,296.82c-4.09-1.12-7.35-2.54-9.79-4.25l4.75-9.39c2.37,1.58,5.22,2.85,8.55,3.81,3.33.96,6.61,1.43,9.84,1.43,7.38,0,11.07-1.94,11.07-5.83,0-1.84-.94-3.13-2.82-3.86-1.88-.72-4.89-1.42-9.04-2.08-4.35-.66-7.89-1.42-10.63-2.27-2.74-.86-5.11-2.36-7.12-4.5-2.01-2.14-3.02-5.12-3.02-8.95,0-5.01,2.09-9.01,6.28-12.01,4.19-3,9.84-4.5,16.95-4.5,3.62,0,7.25.41,10.87,1.24,3.62.82,6.59,1.93,8.9,3.31l-4.75,9.39c-4.48-2.64-9.52-3.95-15.12-3.95-3.63,0-6.38.54-8.25,1.63-1.88,1.09-2.82,2.52-2.82,4.3,0,1.98,1,3.38,3.01,4.2,2.01.82,5.12,1.6,9.34,2.32,4.22.66,7.68,1.42,10.38,2.27,2.7.86,5.03,2.31,6.97,4.35,1.94,2.04,2.92,4.94,2.92,8.7,0,4.94-2.14,8.9-6.43,11.86-4.29,2.96-10.12,4.45-17.5,4.45-4.29,0-8.47-.56-12.56-1.68Z"/>
      </g>
    </g>
  </g>
</svg>